{
  "accessors": [
    {
      "bufferView": 2,
      "componentType": 5126,
      "count": 10512,
      "max": [21.40323829650879, 90.15377807617188, 20.23580551147461],
      "min": [-21.40323829650879, -1.2299270629882813, -20.235816955566406],
      "type": "VEC3"
    },
    {
      "bufferView": 2,
      "byteOffset": 126144,
      "componentType": 5126,
      "count": 10512,
      "max": [0.9999893307685852, 0.9991416931152344, 0.9998940229415894],
      "min": [-0.9999931454658508, -0.9999987483024597, -0.9998811483383179],
      "type": "VEC3"
    },
    {
      "bufferView": 3,
      "componentType": 5126,
      "count": 10512,
      "max": [0.9999376535415649, 0.9999192357063293, 0.9998998045921326, 1.0],
      "min": [
        -0.9998719692230225, -0.9997717142105103, -0.9993945956230164, -1.0
      ],
      "type": "VEC4"
    },
    {
      "bufferView": 1,
      "componentType": 5126,
      "count": 10512,
      "max": [0.9949110150337219, 0.9946330189704895],
      "min": [0.004883000161498785, 0.004883000161498785],
      "type": "VEC2"
    },
    {
      "bufferView": 0,
      "componentType": 5125,
      "count": 51234,
      "type": "SCALAR"
    },
    {
      "bufferView": 2,
      "byteOffset": 252288,
      "componentType": 5126,
      "count": 543,
      "max": [20.857694625854492, 42.048309326171875, 36.6719856262207],
      "min": [13.099807739257813, 0.366119384765625, -19.90733528137207],
      "type": "VEC3"
    },
    {
      "bufferView": 2,
      "byteOffset": 258804,
      "componentType": 5126,
      "count": 543,
      "max": [0.9993604421615601, 0.9930868148803711, 0.9893852472305298],
      "min": [-0.9973637461662292, -0.9715560674667358, -0.9816817045211792],
      "type": "VEC3"
    },
    {
      "bufferView": 3,
      "byteOffset": 168192,
      "componentType": 5126,
      "count": 543,
      "max": [0.9979559183120728, 0.983379065990448, 0.9890872240066528, 1.0],
      "min": [
        -0.9917951822280884, -0.9781211018562317, -0.9903483390808105, 1.0
      ],
      "type": "VEC4"
    },
    {
      "bufferView": 1,
      "byteOffset": 84096,
      "componentType": 5126,
      "count": 543,
      "max": [0.9929379820823669, 0.9807165265083313],
      "min": [0.00683583552017808, 0.006836282089352608],
      "type": "VEC2"
    },
    {
      "bufferView": 0,
      "byteOffset": 204936,
      "componentType": 5125,
      "count": 1980,
      "type": "SCALAR"
    },
    {
      "bufferView": 2,
      "byteOffset": 265320,
      "componentType": 5126,
      "count": 57,
      "max": [48.136566162109375, -1.0207768678665161, 52.23784637451172],
      "min": [-43.9695930480957, -4.4398393630981445, -45.39640808105469],
      "type": "VEC3"
    },
    {
      "bufferView": 2,
      "byteOffset": 266004,
      "componentType": 5126,
      "count": 57,
      "max": [0.9154072403907776, 1.0, 0.9422555565834045],
      "min": [-0.9360362887382507, 0.3047028183937073, -0.9187535643577576],
      "type": "VEC3"
    },
    {
      "bufferView": 3,
      "byteOffset": 176880,
      "componentType": 5126,
      "count": 57,
      "max": [0.491306334733963, 0.9376975893974304, 0.9987712502479553, 1.0],
      "min": [
        -0.22100840508937836, -0.9452441334724426, 0.3019733130931854, 1.0
      ],
      "type": "VEC4"
    },
    {
      "bufferView": 1,
      "byteOffset": 88440,
      "componentType": 5126,
      "count": 57,
      "max": [1.0, 0.9622786045074463],
      "min": [0.0, 0.0],
      "type": "VEC2"
    },
    {
      "bufferView": 0,
      "byteOffset": 212856,
      "componentType": 5125,
      "count": 252,
      "type": "SCALAR"
    }
  ],
  "asset": {
    "extras": {
      "author": "Babevid (https://sketchfab.com/Babevid)",
      "license": "CC-BY-4.0 (http://creativecommons.org/licenses/by/4.0/)",
      "source": "https://sketchfab.com/3d-models/stylized-wraith-knight-death-warrior-3ebe97b7ffe248708ebe877eff81eab3",
      "title": "Stylized  Wraith Knight / Death Warrior"
    },
    "generator": "Sketchfab-15.15.0",
    "version": "2.0"
  },
  "bufferViews": [
    {
      "buffer": 0,
      "byteLength": 213864,
      "name": "floatBufferViews",
      "target": 34963
    },
    {
      "buffer": 0,
      "byteLength": 88896,
      "byteOffset": 213864,
      "byteStride": 8,
      "name": "floatBufferViews",
      "target": 34962
    },
    {
      "buffer": 0,
      "byteLength": 266688,
      "byteOffset": 302760,
      "byteStride": 12,
      "name": "floatBufferViews",
      "target": 34962
    },
    {
      "buffer": 0,
      "byteLength": 177792,
      "byteOffset": 569448,
      "byteStride": 16,
      "name": "floatBufferViews",
      "target": 34962
    }
  ],
  "buffers": [
    {
      "byteLength": 747240,
      "uri": "warrior.bin"
    }
  ],
  "extensionsUsed": [
    "KHR_materials_emissive_strength",
    "KHR_materials_specular"
  ],
  "images": [
    {
      "uri": "textures/waith_mat_baseColor.png"
    },
    {
      "uri": "textures/waith_mat_metallicRoughness.png"
    },
    {
      "uri": "textures/waith_mat_emissive.png"
    },
    {
      "uri": "textures/waith_mat_normal.png"
    },
    {
      "uri": "textures/Axe_mat_baseColor.png"
    },
    {
      "uri": "textures/Axe_mat_metallicRoughness.png"
    },
    {
      "uri": "textures/Axe_mat_normal.png"
    },
    {
      "uri": "textures/base_Mat_baseColor.png"
    },
    {
      "uri": "textures/base_Mat_metallicRoughness.png"
    },
    {
      "uri": "textures/base_Mat_normal.png"
    }
  ],
  "materials": [
    {
      "doubleSided": true,
      "emissiveFactor": [1.0, 1.0, 1.0],
      "emissiveTexture": {
        "index": 2
      },
      "extensions": {
        "KHR_materials_emissive_strength": {
          "emissiveStrength": 10.0
        }
      },
      "name": "waith_mat",
      "normalTexture": {
        "index": 3
      },
      "occlusionTexture": {
        "index": 1
      },
      "pbrMetallicRoughness": {
        "baseColorTexture": {
          "index": 0
        },
        "metallicRoughnessTexture": {
          "index": 1
        }
      }
    },
    {
      "doubleSided": true,
      "name": "Axe_mat",
      "normalTexture": {
        "index": 6
      },
      "occlusionTexture": {
        "index": 5
      },
      "pbrMetallicRoughness": {
        "baseColorTexture": {
          "index": 4
        },
        "metallicRoughnessTexture": {
          "index": 5
        }
      }
    },
    {
      "alphaMode": "BLEND",
      "doubleSided": true,
      "extensions": {
        "KHR_materials_specular": {
          "specularColorFactor": [1.0, 1.0, 1.0],
          "specularFactor": 0.0
        }
      },
      "name": "base_Mat",
      "normalTexture": {
        "index": 9
      },
      "occlusionTexture": {
        "index": 8
      },
      "pbrMetallicRoughness": {
        "baseColorTexture": {
          "index": 7
        },
        "metallicRoughnessTexture": {
          "index": 8
        }
      }
    }
  ],
  "meshes": [
    {
      "name": "Wraith_Armor_waith_mat_0",
      "primitives": [
        {
          "attributes": {
            "NORMAL": 1,
            "POSITION": 0,
            "TANGENT": 2,
            "TEXCOORD_0": 3
          },
          "indices": 4,
          "material": 0,
          "mode": 4
        }
      ]
    },
    {
      "name": "Wraith_Axe_Axe_mat_0",
      "primitives": [
        {
          "attributes": {
            "NORMAL": 6,
            "POSITION": 5,
            "TANGENT": 7,
            "TEXCOORD_0": 8
          },
          "indices": 9,
          "material": 1,
          "mode": 4
        }
      ]
    },
    {
      "name": "Wraith_Base_base_Mat_0",
      "primitives": [
        {
          "attributes": {
            "NORMAL": 11,
            "POSITION": 10,
            "TANGENT": 12,
            "TEXCOORD_0": 13
          },
          "indices": 14,
          "material": 2,
          "mode": 4
        }
      ]
    }
  ],
  "nodes": [
    {
      "children": [1],
      "matrix": [
        1.0, 0.0, 0.0, 0.0, 0.0, 2.220446049250313e-16, -1.0, 0.0, 0.0, 1.0,
        2.220446049250313e-16, 0.0, 0.0, 0.0, 0.0, 1.0
      ],
      "name": "Sketchfab_model"
    },
    {
      "children": [2],
      "matrix": [
        0.009999999776482582, 0.0, 0.0, 0.0, 0.0, 0.0, 0.009999999776482582,
        0.0, 0.0, -0.009999999776482582, 0.0, 0.0, 0.0, 0.0, 0.0, 1.0
      ],
      "name": "4282b9f36bf04c60b6411202d3e4c49e.fbx"
    },
    {
      "children": [3],
      "name": "RootNode"
    },
    {
      "children": [4, 6, 8],
      "name": "Wraith"
    },
    {
      "children": [5],
      "name": "Wraith_Armor"
    },
    {
      "mesh": 0,
      "name": "Wraith_Armor_waith_mat_0"
    },
    {
      "children": [7],
      "name": "Wraith_Axe"
    },
    {
      "mesh": 1,
      "name": "Wraith_Axe_Axe_mat_0"
    },
    {
      "children": [9],
      "name": "Wraith_Base"
    },
    {
      "mesh": 2,
      "name": "Wraith_Base_base_Mat_0"
    }
  ],
  "samplers": [
    {
      "magFilter": 9729,
      "minFilter": 9987,
      "wrapS": 10497,
      "wrapT": 10497
    }
  ],
  "scene": 0,
  "scenes": [
    {
      "name": "Sketchfab_Scene",
      "nodes": [0]
    }
  ],
  "textures": [
    {
      "sampler": 0,
      "source": 0
    },
    {
      "sampler": 0,
      "source": 1
    },
    {
      "sampler": 0,
      "source": 2
    },
    {
      "sampler": 0,
      "source": 3
    },
    {
      "sampler": 0,
      "source": 4
    },
    {
      "sampler": 0,
      "source": 5
    },
    {
      "sampler": 0,
      "source": 6
    },
    {
      "sampler": 0,
      "source": 7
    },
    {
      "sampler": 0,
      "source": 8
    },
    {
      "sampler": 0,
      "source": 9
    }
  ]
}
